TITLE ""
FILE "P1Q_j_1884-1897.mp3" MP3
  TRACK 01 AUDIO
    TITLE "P1Q_j_1884-1897_01"
    INDEX 01 00:00:00
  TRACK 02 AUDIO
    TITLE "P1Q_j_1884-1897_02"
    INDEX 01 00:01:35
  TRACK 03 AUDIO
    TITLE "P1Q_j_1884-1897_03"
    INDEX 01 00:01:55
  TRACK 04 AUDIO
    TITLE "P1Q_j_1884-1897_04"
    INDEX 01 00:08:04
  TRACK 05 AUDIO
    TITLE "P1Q_j_1884-1897_05"
    INDEX 01 00:08:24
  TRACK 06 AUDIO
    TITLE "P1Q_j_1884-1897_06"
    INDEX 01 00:12:17
  TRACK 07 AUDIO
    TITLE "P1Q_j_1884-1897_07"
    INDEX 01 00:12:62
  TRACK 08 AUDIO
    TITLE "P1Q_j_1884-1897_08"
    INDEX 01 00:14:10
  TRACK 09 AUDIO
    TITLE "P1Q_j_1884-1897_09"
    INDEX 01 00:14:30
  TRACK 10 AUDIO
    TITLE "P1Q_j_1884-1897_10"
    INDEX 01 00:17:21
  TRACK 11 AUDIO
    TITLE "P1Q_j_1884-1897_11"
    INDEX 01 00:17:40
  TRACK 12 AUDIO
    TITLE "P1Q_j_1884-1897_12"
    INDEX 01 00:21:65
  TRACK 13 AUDIO
    TITLE "P1Q_j_1884-1897_13"
    INDEX 01 00:22:35
  TRACK 14 AUDIO
    TITLE "P1Q_j_1884-1897_14"
    INDEX 01 00:23:51
  TRACK 15 AUDIO
    TITLE "P1Q_j_1884-1897_15"
    INDEX 01 00:23:70
  TRACK 16 AUDIO
    TITLE "P1Q_j_1884-1897_16"
    INDEX 01 00:26:66
  TRACK 17 AUDIO
    TITLE "P1Q_j_1884-1897_17"
    INDEX 01 00:27:11
  TRACK 18 AUDIO
    TITLE "P1Q_j_1884-1897_18"
    INDEX 01 00:31:42
  TRACK 19 AUDIO
    TITLE "P1Q_j_1884-1897_19"
    INDEX 01 00:32:12
  TRACK 20 AUDIO
    TITLE "P1Q_j_1884-1897_20"
    INDEX 01 00:33:41
  TRACK 21 AUDIO
    TITLE "P1Q_j_1884-1897_21"
    INDEX 01 00:33:61
  TRACK 22 AUDIO
    TITLE "P1Q_j_1884-1897_22"
    INDEX 01 00:40:08
  TRACK 23 AUDIO
    TITLE "P1Q_j_1884-1897_23"
    INDEX 01 00:40:27
  TRACK 24 AUDIO
    TITLE "P1Q_j_1884-1897_24"
    INDEX 01 00:43:57
  TRACK 25 AUDIO
    TITLE "P1Q_j_1884-1897_25"
    INDEX 01 00:44:25
  TRACK 26 AUDIO
    TITLE "P1Q_j_1884-1897_26"
    INDEX 01 00:46:03
  TRACK 27 AUDIO
    TITLE "P1Q_j_1884-1897_27"
    INDEX 01 00:46:24
  TRACK 28 AUDIO
    TITLE "P1Q_j_1884-1897_28"
    INDEX 01 00:50:45
  TRACK 29 AUDIO
    TITLE "P1Q_j_1884-1897_29"
    INDEX 01 00:50:65
  TRACK 30 AUDIO
    TITLE "P1Q_j_1884-1897_30"
    INDEX 01 00:54:67
  TRACK 31 AUDIO
    TITLE "P1Q_j_1884-1897_31"
    INDEX 01 00:55:39
  TRACK 32 AUDIO
    TITLE "P1Q_j_1884-1897_32"
    INDEX 01 00:57:00
  TRACK 33 AUDIO
    TITLE "P1Q_j_1884-1897_33"
    INDEX 01 00:57:22
  TRACK 34 AUDIO
    TITLE "P1Q_j_1884-1897_34"
    INDEX 01 01:02:62
  TRACK 35 AUDIO
    TITLE "P1Q_j_1884-1897_35"
    INDEX 01 01:03:05
  TRACK 36 AUDIO
    TITLE "P1Q_j_1884-1897_36"
    INDEX 01 01:07:36
  TRACK 37 AUDIO
    TITLE "P1Q_j_1884-1897_37"
    INDEX 01 01:08:06
  TRACK 38 AUDIO
    TITLE "P1Q_j_1884-1897_38"
    INDEX 01 01:09:37
  TRACK 39 AUDIO
    TITLE "P1Q_j_1884-1897_39"
    INDEX 01 01:09:57
  TRACK 40 AUDIO
    TITLE "P1Q_j_1884-1897_40"
    INDEX 01 01:11:53
  TRACK 41 AUDIO
    TITLE "P1Q_j_1884-1897_41"
    INDEX 01 01:11:73
  TRACK 42 AUDIO
    TITLE "P1Q_j_1884-1897_42"
    INDEX 01 01:15:57
  TRACK 43 AUDIO
    TITLE "P1Q_j_1884-1897_43"
    INDEX 01 01:16:27
  TRACK 44 AUDIO
    TITLE "P1Q_j_1884-1897_44"
    INDEX 01 01:17:68
  TRACK 45 AUDIO
    TITLE "P1Q_j_1884-1897_45"
    INDEX 01 01:18:12
  TRACK 46 AUDIO
    TITLE "P1Q_j_1884-1897_46"
    INDEX 01 01:23:12
  TRACK 47 AUDIO
    TITLE "P1Q_j_1884-1897_47"
    INDEX 01 01:23:31
  TRACK 48 AUDIO
    TITLE "P1Q_j_1884-1897_48"
    INDEX 01 01:28:24
  TRACK 49 AUDIO
    TITLE "P1Q_j_1884-1897_49"
    INDEX 01 01:28:70
  TRACK 50 AUDIO
    TITLE "P1Q_j_1884-1897_50"
    INDEX 01 01:30:35
  TRACK 51 AUDIO
    TITLE "P1Q_j_1884-1897_51"
    INDEX 01 01:30:55
  TRACK 52 AUDIO
    TITLE "P1Q_j_1884-1897_52"
    INDEX 01 01:34:68
  TRACK 53 AUDIO
    TITLE "P1Q_j_1884-1897_53"
    INDEX 01 01:35:05
  TRACK 54 AUDIO
    TITLE "P1Q_j_1884-1897_54"
    INDEX 01 01:38:09
  TRACK 55 AUDIO
    TITLE "P1Q_j_1884-1897_55"
    INDEX 01 01:38:54
  TRACK 56 AUDIO
    TITLE "P1Q_j_1884-1897_56"
    INDEX 01 01:40:12
  TRACK 57 AUDIO
    TITLE "P1Q_j_1884-1897_57"
    INDEX 01 01:40:32
  TRACK 58 AUDIO
    TITLE "P1Q_j_1884-1897_58"
    INDEX 01 01:46:26
  TRACK 59 AUDIO
    TITLE "P1Q_j_1884-1897_59"
    INDEX 01 01:46:50
  TRACK 60 AUDIO
    TITLE "P1Q_j_1884-1897_60"
    INDEX 01 01:50:61
  TRACK 61 AUDIO
    TITLE "P1Q_j_1884-1897_61"
    INDEX 01 01:51:31
  TRACK 62 AUDIO
    TITLE "P1Q_j_1884-1897_62"
    INDEX 01 01:52:56
  TRACK 63 AUDIO
    TITLE "P1Q_j_1884-1897_63"
    INDEX 01 01:53:03
  TRACK 64 AUDIO
    TITLE "P1Q_j_1884-1897_64"
    INDEX 01 01:58:69
  TRACK 65 AUDIO
    TITLE "P1Q_j_1884-1897_65"
    INDEX 01 01:59:11
  TRACK 66 AUDIO
    TITLE "P1Q_j_1884-1897_66"
    INDEX 01 02:03:46
  TRACK 67 AUDIO
    TITLE "P1Q_j_1884-1897_67"
    INDEX 01 02:04:16
  TRACK 68 AUDIO
    TITLE "P1Q_j_1884-1897_68"
    INDEX 01 02:05:41
  TRACK 69 AUDIO
    TITLE "P1Q_j_1884-1897_69"
    INDEX 01 02:05:63
  TRACK 70 AUDIO
    TITLE "P1Q_j_1884-1897_70"
    INDEX 01 02:08:12
  TRACK 71 AUDIO
    TITLE "P1Q_j_1884-1897_71"
    INDEX 01 02:08:32
  TRACK 72 AUDIO
    TITLE "P1Q_j_1884-1897_72"
    INDEX 01 02:12:63
  TRACK 73 AUDIO
    TITLE "P1Q_j_1884-1897_73"
    INDEX 01 02:13:33
  TRACK 74 AUDIO
    TITLE "P1Q_j_1884-1897_74"
    INDEX 01 02:14:64
  TRACK 75 AUDIO
    TITLE "P1Q_j_1884-1897_75"
    INDEX 01 02:15:08
  TRACK 76 AUDIO
    TITLE "P1Q_j_1884-1897_76"
    INDEX 01 02:21:27
  TRACK 77 AUDIO
    TITLE "P1Q_j_1884-1897_77"
    INDEX 01 02:21:46
  TRACK 78 AUDIO
    TITLE "P1Q_j_1884-1897_78"
    INDEX 01 02:27:51
  TRACK 79 AUDIO
    TITLE "P1Q_j_1884-1897_79"
    INDEX 01 02:28:19
  TRACK 80 AUDIO
    TITLE "P1Q_j_1884-1897_80"
    INDEX 01 02:29:50
  TRACK 81 AUDIO
    TITLE "P1Q_j_1884-1897_81"
    INDEX 01 02:29:69
  TRACK 82 AUDIO
    TITLE "P1Q_j_1884-1897_82"
    INDEX 01 02:31:72
  TRACK 83 AUDIO
    TITLE "P1Q_j_1884-1897_83"
    INDEX 01 02:32:17
  TRACK 84 AUDIO
    TITLE "P1Q_j_1884-1897_84"
    INDEX 01 02:37:00
